<?xml version="1.0" encoding="UTF-8" standalone="no"?>
<!-- Created with Sodipodi ("http://www.sodipodi.com/") -->
<svg
   xmlns:dc="http://purl.org/dc/elements/1.1/"
   xmlns:cc="http://creativecommons.org/ns#"
   xmlns:rdf="http://www.w3.org/1999/02/22-rdf-syntax-ns#"
   xmlns:svg="http://www.w3.org/2000/svg"
   xmlns="http://www.w3.org/2000/svg"
   xmlns:xlink="http://www.w3.org/1999/xlink"
   xmlns:sodipodi="http://sodipodi.sourceforge.net/DTD/sodipodi-0.dtd"
   xmlns:inkscape="http://www.inkscape.org/namespaces/inkscape"
   id="svg602"
   sodipodi:version="0.32"
   width="210mm"
   height="297mm"
   xml:space="preserve"
   sodipodi:docbase="/mnt/test/kuliax-6.0/artworks/kuliax-artwork-0.1.2/grub"
   sodipodi:docname="syslinux-7.0.svg"
   inkscape:version="0.46"
   inkscape:export-filename="/home/kuliax/kuliax.png"
   inkscape:export-xdpi="112.5"
   inkscape:export-ydpi="112.5"
   inkscape:output_extension="org.inkscape.output.svg.inkscape"><metadata
   id="metadata2450"><rdf:RDF><cc:Work
       rdf:about=""><dc:format>image/svg+xml</dc:format><dc:type
         rdf:resource="http://purl.org/dc/dcmitype/StillImage" /></cc:Work></rdf:RDF></metadata><defs
   id="defs604"><inkscape:perspective
     sodipodi:type="inkscape:persp3d"
     inkscape:vp_x="0 : 526.18109 : 1"
     inkscape:vp_y="0 : 1000 : 0"
     inkscape:vp_z="744.09448 : 526.18109 : 1"
     inkscape:persp3d-origin="372.04724 : 350.78739 : 1"
     id="perspective64" /><linearGradient
     id="linearGradient850"><stop
       style="stop-color:#ffd94d;stop-opacity:1;"
       offset="0"
       id="stop851" /><stop
       style="stop-color:#8f5a00;stop-opacity:1;"
       offset="1"
       id="stop852" /></linearGradient><linearGradient
     id="linearGradient823"><stop
       style="stop-color:#ffffff;stop-opacity:0.102;"
       offset="0"
       id="stop824" /><stop
       style="stop-color:#ffffff;stop-opacity:0;"
       offset="1"
       id="stop827" /></linearGradient><linearGradient
     id="linearGradient917"><stop
       style="stop-color:#ffffff;stop-opacity:1;"
       offset="0"
       id="stop918" /><stop
       style="stop-color:#ffffff;stop-opacity:0;"
       offset="1"
       id="stop919" /></linearGradient><linearGradient
     id="linearGradient913"><stop
       style="stop-color:#ccea7a;stop-opacity:1;"
       offset="0"
       id="stop914" /><stop
       style="stop-color:#ffffff;stop-opacity:1;"
       offset="1"
       id="stop915" /></linearGradient><linearGradient
     id="linearGradient889"><stop
       style="stop-color:#000000;stop-opacity:0.051;"
       offset="0"
       id="stop890" /><stop
       style="stop-color:#000000;stop-opacity:0.1961;"
       offset="1"
       id="stop891" /></linearGradient><linearGradient
     id="linearGradient885"><stop
       style="stop-color:#ff9f00;stop-opacity:1;"
       offset="0"
       id="stop886" /><stop
       style="stop-color:#ffc24a;stop-opacity:1;"
       offset="1"
       id="stop887" /></linearGradient><linearGradient
     id="linearGradient882"><stop
       style="stop-color:#ffda4d;stop-opacity:1;"
       offset="0"
       id="stop883" /><stop
       style="stop-color:#d57a00;stop-opacity:1;"
       offset="1"
       id="stop884" /></linearGradient><linearGradient
     id="linearGradient876"><stop
       style="stop-color:#ffff7a;stop-opacity:1;"
       offset="0"
       id="stop877" /><stop
       style="stop-color:#ff8d00;stop-opacity:1;"
       offset="1"
       id="stop878" /></linearGradient><linearGradient
     id="linearGradient827"><stop
       style="stop-color:#000000;stop-opacity:1;"
       offset="0"
       id="stop828" /><stop
       style="stop-color:#826f37;stop-opacity:1;"
       offset="1"
       id="stop829" /></linearGradient><linearGradient
     id="linearGradient824"><stop
       style="stop-color:#e6e6e6;stop-opacity:1;"
       offset="0"
       id="stop825" /><stop
       style="stop-color:#ffffff;stop-opacity:1;"
       offset="1"
       id="stop826" /></linearGradient><linearGradient
     id="linearGradient770"><stop
       style="stop-color:#007575;stop-opacity:1;"
       offset="0"
       id="stop771" /><stop
       style="stop-color:#ffffff;stop-opacity:1;"
       offset="1"
       id="stop772" /></linearGradient><linearGradient
     id="linearGradient766"><stop
       style="stop-color:#000;stop-opacity:1;"
       offset="0"
       id="stop767" /><stop
       style="stop-color:#fff;stop-opacity:1;"
       offset="1"
       id="stop768" /></linearGradient><linearGradient
     xlink:href="#linearGradient823"
     id="linearGradient769"
     x1="-1.66363758e-8"
     y1="1.14564273e-7"
     x2="1"
     y2="1.14564273e-7" /><radialGradient
     xlink:href="#linearGradient882"
     id="radialGradient854"
     cx="0.49999994"
     cy="0.50000024"
     r="0.49999997"
     fx="0.49999994"
     fy="0.50000024" /><radialGradient
     xlink:href="#linearGradient885"
     id="radialGradient855"
     cx="400.27727"
     cy="234.38054"
     r="57.514627"
     fx="400.27727"
     fy="234.38054"
     gradientTransform="matrix(0.999923,0,0,1.000077,72,106)"
     gradientUnits="userSpaceOnUse" /><radialGradient
     xlink:href="#linearGradient889"
     id="radialGradient856"
     cx="401.48658"
     cy="236.78456"
     r="58.452131"
     fx="401.48658"
     fy="236.78456"
     gradientTransform="matrix(0.999925,0,0,1.000075,72,106)"
     gradientUnits="userSpaceOnUse" /><radialGradient
     xlink:href="#linearGradient876"
     id="radialGradient857"
     cx="400.27727"
     cy="234.38054"
     r="57.514627"
     fx="400.27727"
     fy="234.38054"
     gradientTransform="matrix(0.999923,0,0,1.000077,72,106)"
     gradientUnits="userSpaceOnUse" /><linearGradient
     xlink:href="#linearGradient913"
     id="linearGradient858"
     x1="0.47286817"
     y1="5.29270437e-6"
     x2="0.47286817"
     y2="0.9765628" /><linearGradient
     xlink:href="#linearGradient917"
     id="linearGradient859"
     x1="0.49781659"
     y1="-6.2584877e-7"
     x2="0.50218344"
     y2="0.97916609" /><linearGradient
     xlink:href="#linearGradient823"
     id="linearGradient860" /><linearGradient
     xlink:href="#linearGradient827"
     id="linearGradient861" /><radialGradient
     xlink:href="#linearGradient850"
     id="radialGradient819"
     cx="400.29263"
     cy="235.24158"
     r="58.447036"
     fx="400.29263"
     fy="235.24158"
     gradientTransform="matrix(0.999857,0,0,1.000143,72,106)"
     gradientUnits="userSpaceOnUse" /><radialGradient
     xlink:href="#linearGradient917"
     id="radialGradient821"
     cx="0.27947599"
     cy="3.27869467e-2"
     r="1.0156188"
     fx="0.27947599"
     fy="3.27869467e-2" /><radialGradient
     inkscape:collect="always"
     xlink:href="#linearGradient876"
     id="radialGradient2452"
     cx="400.27795"
     cy="234.38014"
     fx="400.27795"
     fy="234.38014"
     r="56.264627"
     gradientTransform="matrix(0.999922,0,0,1.000078,72,106)"
     gradientUnits="userSpaceOnUse" /></defs><sodipodi:namedview
   id="base"
   showgrid="false"
   snaptogrid="true"
   inkscape:zoom="0.71838385"
   inkscape:cx="610.97227"
   inkscape:cy="755.27918"
   inkscape:window-width="1388"
   inkscape:window-height="842"
   inkscape:window-x="46"
   inkscape:window-y="30"
   inkscape:current-layer="svg602"><inkscape:grid
     id="GridFromPre046Settings"
     type="xygrid"
     originx="0px"
     originy="0px"
     spacingx="1mm"
     spacingy="1mm"
     color="#0000ff"
     empcolor="#0000ff"
     opacity="0.2"
     empopacity="0.4"
     empspacing="5" /></sodipodi:namedview><path
   style="font-size:12px;fill:#ffffff;fill-opacity:0.15460002;fill-rule:evenodd;stroke:none;stroke-width:4.375;stroke-dasharray:none;stroke-opacity:0.1488"
   d="M 805.32646,161.67647 C 776.8705,160.08117 750.13435,178.59605 742.57297,207.18751 C 734.10956,238.3573 702.29048,256.70742 670.90443,248.24139 C 642.65036,240.76927 613.62162,254.48122 600.64394,279.44231 C 601.87248,251.18336 583.57374,224.76597 555.24991,217.2751 C 522.38093,208.38417 488.9343,228.11108 480.06288,260.90944 C 471.41371,293.34303 490.72999,327.09368 523.57971,335.97935 C 554.66739,344.2145 573.00426,376.13945 564.7511,407.29575 C 557.00271,435.70558 570.74693,464.91456 595.95203,477.79124 C 567.61957,476.36683 541.29669,494.78069 533.78481,522.95039 C 524.89089,555.83026 544.39105,589.61314 577.06714,598.25481 C 609.75137,607.16861 643.49538,587.53107 652.13705,554.8551 C 660.60033,523.68529 692.30203,505.33517 723.68796,513.80121 C 740.41165,518.22399 757.0292,514.53724 770.84129,506.17708 C 776.65099,502.66046 781.68479,498.30007 786.08982,493.03989 C 786.16043,492.95538 786.25431,492.88976 786.32444,492.80525 C 786.41007,492.69487 786.4742,492.56388 786.55908,492.45325 C 789.12228,489.31489 792.02714,486.49154 793.94895,482.83492 C 792.82104,510.94549 811.18653,537.08674 839.34261,544.533 C 872.02684,553.4468 905.74946,533.75851 914.64701,501.13316 C 923.27593,468.50481 903.91202,434.69254 871.01268,426.06325 C 839.84325,417.59984 821.49287,385.89828 829.95879,354.51222 C 837.43092,326.25814 823.71908,297.22942 798.75786,284.25173 C 814.7054,285.02188 829.52565,278.99793 841.2193,269.00309 C 850.26748,261.26908 857.65285,251.36362 860.92521,239.09221 C 869.81913,206.21235 850.26785,172.45084 817.64288,163.55316 L 817.52537,163.55316 C 813.4416,162.47325 809.39159,161.90423 805.32646,161.67647 z M 709.14322,336.33148 C 708.36507,359.95516 721.3225,382.12928 742.33833,392.98552 C 718.75367,391.96724 696.47479,404.88866 685.33216,425.82863 C 686.3617,402.1937 673.42527,380.03671 652.60619,369.05708 C 676.0786,369.87599 698.17097,357.07593 709.14322,336.33148 z"
   id="path1001" /><rect
   style="font-size:12px;fill:#000000;fill-opacity:1;fill-rule:evenodd;stroke-width:1"
   id="rect871"
   x="0.8959406"
   y="0.15406504"
   width="800"
   height="500"
   inkscape:export-filename="/home/stwn/NEW/splash.png"
   inkscape:export-xdpi="72"
   inkscape:export-ydpi="72" /><path
   style="font-size:12px;fill:#ffffff;fill-opacity:0.10309999;fill-rule:evenodd"
   d="M 2.5918717,0.30833055 L 2.5918717,264.87843 C 390.40149,362.43863 546.94122,193.77523 797.87678,264.87843 L 797.87678,0.30833055 L 2.5918717,0.30833055 z"
   id="path829"
   sodipodi:nodetypes="ccccc"
   inkscape:export-filename="/home/stwn/NEW/splash.png"
   inkscape:export-xdpi="72"
   inkscape:export-ydpi="72" /><path
   style="font-size:12px;fill:#ffffff;fill-opacity:0.1;fill-rule:evenodd;stroke:#ffffff;stroke-width:16.4246788;stroke-opacity:0.07999998"
   d="M 763.43333,396.50126 C 799.09839,406.12146 819.98123,442.72494 810.59566,477.92076 C 802.85265,506.54659 819.74659,535.64182 848.1378,543.15021 C 876.52901,550.89321 905.62424,533.99927 913.36725,505.60806 C 920.87575,477.21686 904.21631,448.12162 875.59048,440.61325 C 840.16015,430.99305 819.04269,394.62407 828.66277,358.95912 C 836.17127,330.56791 819.27733,301.23805 790.886,293.72967 C 762.72943,286.22117 733.39968,303.11524 725.65655,331.27181 C 718.14818,359.66302 735.04212,388.99275 763.43333,396.50126 z M 712.98612,327.98682 C 722.60632,292.32188 759.20993,271.43904 794.40561,280.82449 C 823.03146,288.56763 852.12668,271.67368 859.63506,243.51711 C 867.3782,214.89114 850.48413,185.79603 822.09292,178.0529 C 793.70171,170.54453 764.60662,187.43847 757.09811,215.82967 C 747.47791,251.26012 711.10906,272.37758 675.44399,262.75738 C 647.05278,255.249 617.72291,272.14295 610.21454,300.53415 C 602.70616,328.69072 619.6001,358.02059 647.75667,365.7636 C 676.14788,373.2721 705.47775,356.37803 712.98612,327.98682 z M 644.47169,378.43403 C 608.80674,368.81396 587.68928,332.44498 597.30947,297.01454 C 604.81786,268.38869 588.15854,239.29359 559.76733,231.78509 C 531.14137,224.04208 502.2809,240.93602 494.53777,269.56186 C 487.02939,297.71856 503.68869,326.81366 532.31454,334.55668 C 567.74498,343.94224 588.62781,380.54584 579.24224,415.97616 C 571.49923,444.36749 588.39318,473.69724 616.78438,481.20574 C 645.17559,488.94874 674.50545,471.82017 682.01383,443.6636 C 689.75697,415.27227 672.62826,385.94253 644.47169,378.43403 z M 694.68439,447.1831 C 685.29881,482.61354 648.69521,503.731 613.49952,494.34543 C 584.87356,486.60229 555.77845,503.49636 548.26994,531.65294 C 540.52693,560.27878 557.42088,589.37401 585.81209,596.88238 C 614.20342,604.6254 643.29853,587.73146 650.8069,559.34025 C 660.4271,523.9098 696.79608,502.79234 732.46115,512.41255 C 760.85236,519.92104 790.1821,503.0271 797.6906,474.63577 C 805.19898,446.24456 788.30503,417.14946 759.91382,409.40632 C 731.75713,401.89794 702.42739,418.79189 694.68439,447.1831 z"
   id="path1008" /><path
   style="font-size:12px;fill:#ffffff;fill-opacity:0.1;fill-rule:evenodd;stroke:none;stroke-width:4.375;stroke-dasharray:none;stroke-opacity:0.1488"
   d="M 807.36668,162.426 C 778.90522,160.83045 752.16394,179.34895 744.60106,207.94591 C 736.13616,239.12159 704.31083,257.4752 672.9189,249.00754 C 644.65945,241.53404 615.6251,255.24863 602.6449,280.21447 C 603.8737,251.95014 585.57146,225.52762 557.24225,218.03538 C 524.36689,209.1427 490.91389,228.87337 482.04084,261.67809 C 473.38993,294.11781 492.70995,327.87494 525.56606,336.76237 C 556.65948,344.99902 574.99998,376.9301 566.7452,408.09241 C 558.99544,436.5076 572.74228,465.72221 597.95212,478.60141 C 569.61417,477.1766 543.28629,495.5941 535.77302,523.76905 C 526.87736,556.65528 546.38126,590.44467 579.06362,599.08796 C 611.75409,608.00351 645.50447,588.36222 654.14789,555.67988 C 662.6128,524.50419 694.3205,506.15058 725.71255,514.61812 C 742.43936,519.04176 759.06005,515.35439 772.87489,506.99261 C 778.68558,503.47524 783.72038,499.11396 788.12628,493.85291 C 788.19691,493.76842 788.29079,493.70266 788.36091,493.61828 C 788.44654,493.50791 788.51079,493.37677 788.59555,493.26614 C 791.15939,490.12716 794.06473,487.30332 795.98692,483.64594 C 794.85875,511.76201 813.22776,537.90815 841.38919,545.35578 C 874.0798,554.27133 907.80881,534.57929 916.70812,501.94769 C 925.33866,469.31308 905.97113,435.49433 873.06539,426.8634 C 841.89009,418.3985 823.53609,386.69068 832.00376,355.29875 C 839.47726,327.0393 825.76267,298.00494 800.79683,285.02476 C 816.74737,285.79516 831.57049,279.76996 843.26638,269.77324 C 852.31619,262.03773 859.70307,252.1304 862.97593,239.85674 C 871.8716,206.9705 852.31656,173.20249 819.68534,164.30319 L 819.56784,164.30319 C 815.48332,163.22303 811.43244,162.65388 807.36668,162.426 z M 711.16493,337.11451 C 710.38666,360.74268 723.3466,382.92118 744.36643,393.77942 C 720.77726,392.76089 698.49413,405.68482 687.34938,426.62878 C 688.37917,402.98923 675.44023,380.82811 654.61715,369.84636 C 678.09407,370.66551 700.1907,357.86284 711.16493,337.11451 z"
   id="path1010" /><path
   style="font-size:12px;fill:#ffffff;fill-opacity:0.1;fill-rule:evenodd"
   d="M 758.89191,387.47646 C 794.55687,397.09666 815.4397,433.70026 806.05426,468.89595 C 798.31112,497.52191 815.20507,526.61702 843.5964,534.1254 C 871.98761,541.86853 901.08271,524.97459 908.82585,496.58326 C 916.33422,468.19205 899.67491,439.09694 871.04907,431.58845 C 835.61863,421.96837 814.50117,385.59939 824.12136,349.93431 C 831.62975,321.54311 814.7358,292.21337 786.3446,284.70487 C 758.18802,277.19649 728.85815,294.09044 721.11515,322.24701 C 713.60665,350.63822 730.50072,379.96807 758.89191,387.47646 z M 708.44459,318.96215 C 718.06479,283.29708 754.6684,262.41424 789.86421,271.79981 C 818.49006,279.54282 847.58515,262.64888 855.09366,234.49231 C 862.83667,205.86646 845.94273,176.77123 817.55152,169.02822 C 789.16019,161.51972 760.06509,178.41379 752.55671,206.805 C 742.93651,242.23532 706.56753,263.35278 670.90245,253.7327 C 642.51124,246.2242 613.18151,263.11814 605.67301,291.50935 C 598.16463,319.66604 615.05857,348.99579 643.21514,356.73892 C 671.60648,364.24729 700.93622,347.35335 708.44459,318.96215 z M 639.93029,369.40935 C 604.26521,359.78915 583.14775,323.42017 592.76795,287.98986 C 600.27633,259.36401 583.61701,230.26879 555.22581,222.76041 C 526.59997,215.01727 497.73938,231.91122 489.99636,260.53717 C 482.48786,288.69376 499.14729,317.78885 527.77314,325.532 C 563.20345,334.91756 584.08628,371.52104 574.70084,406.95149 C 566.95771,435.34269 583.85165,464.67256 612.24298,472.18093 C 640.63419,479.92395 669.96392,462.79537 677.47243,434.6388 C 685.21544,406.24759 668.08686,376.91772 639.93029,369.40935 z M 690.14285,438.15842 C 680.75729,473.58873 644.15368,494.70619 608.95799,485.32063 C 580.33216,477.57761 551.23693,494.47156 543.72854,522.62814 C 535.98541,551.2541 552.87948,580.3492 581.27068,587.85759 C 609.66189,595.60072 638.757,578.70678 646.2655,550.31544 C 655.8857,514.88513 692.25455,493.76767 727.91963,503.38787 C 756.31084,510.89624 785.64069,494.00229 793.14908,465.61109 C 800.65757,437.21975 783.76351,408.12466 755.3723,400.38164 C 727.21573,392.87314 697.88587,409.76708 690.14285,438.15842 z"
   id="path1012" /><path
   style="font-size:12px;opacity:1;fill:none;fill-rule:evenodd;stroke:#ffffff;stroke-width:7.60725641;stroke-linecap:round;stroke-linejoin:round;stroke-opacity:1"
   d="M 93.545419,101.0452 L 93.545419,144.17289 M 120.50045,101.04597 L 93.545419,133.39087 M 104.32744,122.60904 L 120.50045,144.17308 M 131.28208,111.82856 L 131.28229,133.39202 C 131.28208,138.78208 136.6731,144.17289 142.06411,144.17308 C 152.84613,144.17308 152.84613,144.17308 152.84613,133.39202 L 152.84593,111.82856 M 163.62795,101.04597 L 163.62795,133.39202 C 163.62795,138.78208 169.01896,144.17289 174.41016,144.17308 M 185.19178,117.21823 L 185.19178,144.17308 M 249.8835,111.82856 L 228.31946,144.17308 M 228.31946,111.82856 L 249.8835,144.17308 M 201.3648,111.82703 L 206.75562,111.82856 C 212.14664,111.82703 217.53765,117.21823 217.53765,122.60943 L 217.53765,144.17308 M 217.53765,122.60943 L 206.75562,122.60943 C 201.3648,122.60904 195.9738,128.00005 195.9738,133.39202 C 195.9738,144.17289 195.9738,144.17289 206.75562,144.17308 L 217.53765,144.17308 M 185.19178,101.0452 L 185.19178,106.43621"
   id="path992"
   inkscape:export-filename="/home/stwn/NEW/splash.png"
   inkscape:export-xdpi="72"
   inkscape:export-ydpi="72" />



















<text
   xml:space="preserve"
   style="font-size:25.57087898px;font-style:normal;font-variant:normal;font-weight:bold;font-stretch:normal;text-align:start;line-height:100%;writing-mode:lr-tb;text-anchor:start;fill:#000000;fill-opacity:1;stroke:none;stroke-width:1px;stroke-linecap:butt;stroke-linejoin:miter;stroke-opacity:1;font-family:Bitstream Charter;-inkscape-font-specification:Bitstream Charter Bold"
   x="253.2827"
   y="98.824326"
   id="text2434"
   sodipodi:linespacing="100%"
   inkscape:export-filename="/home/stwn/NEW/splash.png"
   inkscape:export-xdpi="72"
   inkscape:export-ydpi="72"><tspan
     sodipodi:role="line"
     id="tspan2436"
     x="253.2827"
     y="98.824326"
     style="font-size:25.57087898px;font-style:normal;font-variant:normal;font-weight:bold;font-stretch:normal;text-align:start;line-height:100%;writing-mode:lr-tb;text-anchor:start;fill:#ffffff;font-family:Bitstream Charter;-inkscape-font-specification:Bitstream Charter Bold">7.0</tspan></text>

</svg>