<?xml version="1.0" encoding="UTF-8" standalone="no"?>
<!-- Created with Sodipodi ("http://www.sodipodi.com/") -->
<svg
   xmlns:dc="http://purl.org/dc/elements/1.1/"
   xmlns:cc="http://creativecommons.org/ns#"
   xmlns:rdf="http://www.w3.org/1999/02/22-rdf-syntax-ns#"
   xmlns:svg="http://www.w3.org/2000/svg"
   xmlns="http://www.w3.org/2000/svg"
   xmlns:xlink="http://www.w3.org/1999/xlink"
   xmlns:sodipodi="http://sodipodi.sourceforge.net/DTD/sodipodi-0.dtd"
   xmlns:inkscape="http://www.inkscape.org/namespaces/inkscape"
   id="svg602"
   sodipodi:version="0.32"
   width="800"
   height="600"
   xml:space="preserve"
   sodipodi:docbase="/mnt/test/kuliax-6.0/artworks/kuliax-artwork-0.1.2/grub"
   sodipodi:docname="syslinux-7.0-640x480.svg"
   inkscape:version="0.46"
   inkscape:export-filename="/home/kuliax/kuliax.png"
   inkscape:export-xdpi="112.5"
   inkscape:export-ydpi="112.5"
   inkscape:output_extension="org.inkscape.output.svg.inkscape"
   version="1.0"><metadata
   id="metadata2450"><rdf:RDF><cc:Work
       rdf:about=""><dc:format>image/svg+xml</dc:format><dc:type
         rdf:resource="http://purl.org/dc/dcmitype/StillImage" /></cc:Work></rdf:RDF></metadata><defs
   id="defs604"><inkscape:perspective
     sodipodi:type="inkscape:persp3d"
     inkscape:vp_x="0 : 526.18109 : 1"
     inkscape:vp_y="0 : 1000 : 0"
     inkscape:vp_z="744.09448 : 526.18109 : 1"
     inkscape:persp3d-origin="372.04724 : 350.78739 : 1"
     id="perspective64" /><linearGradient
     id="linearGradient850"><stop
       style="stop-color:#ffd94d;stop-opacity:1;"
       offset="0"
       id="stop851" /><stop
       style="stop-color:#8f5a00;stop-opacity:1;"
       offset="1"
       id="stop852" /></linearGradient><linearGradient
     id="linearGradient823"><stop
       style="stop-color:#ffffff;stop-opacity:0.102;"
       offset="0"
       id="stop824" /><stop
       style="stop-color:#ffffff;stop-opacity:0;"
       offset="1"
       id="stop827" /></linearGradient><linearGradient
     id="linearGradient917"><stop
       style="stop-color:#ffffff;stop-opacity:1;"
       offset="0"
       id="stop918" /><stop
       style="stop-color:#ffffff;stop-opacity:0;"
       offset="1"
       id="stop919" /></linearGradient><linearGradient
     id="linearGradient913"><stop
       style="stop-color:#ccea7a;stop-opacity:1;"
       offset="0"
       id="stop914" /><stop
       style="stop-color:#ffffff;stop-opacity:1;"
       offset="1"
       id="stop915" /></linearGradient><linearGradient
     id="linearGradient889"><stop
       style="stop-color:#000000;stop-opacity:0.051;"
       offset="0"
       id="stop890" /><stop
       style="stop-color:#000000;stop-opacity:0.1961;"
       offset="1"
       id="stop891" /></linearGradient><linearGradient
     id="linearGradient885"><stop
       style="stop-color:#ff9f00;stop-opacity:1;"
       offset="0"
       id="stop886" /><stop
       style="stop-color:#ffc24a;stop-opacity:1;"
       offset="1"
       id="stop887" /></linearGradient><linearGradient
     id="linearGradient882"><stop
       style="stop-color:#ffda4d;stop-opacity:1;"
       offset="0"
       id="stop883" /><stop
       style="stop-color:#d57a00;stop-opacity:1;"
       offset="1"
       id="stop884" /></linearGradient><linearGradient
     id="linearGradient876"><stop
       style="stop-color:#ffff7a;stop-opacity:1;"
       offset="0"
       id="stop877" /><stop
       style="stop-color:#ff8d00;stop-opacity:1;"
       offset="1"
       id="stop878" /></linearGradient><linearGradient
     id="linearGradient827"><stop
       style="stop-color:#000000;stop-opacity:1;"
       offset="0"
       id="stop828" /><stop
       style="stop-color:#826f37;stop-opacity:1;"
       offset="1"
       id="stop829" /></linearGradient><linearGradient
     id="linearGradient824"><stop
       style="stop-color:#e6e6e6;stop-opacity:1;"
       offset="0"
       id="stop825" /><stop
       style="stop-color:#ffffff;stop-opacity:1;"
       offset="1"
       id="stop826" /></linearGradient><linearGradient
     id="linearGradient770"><stop
       style="stop-color:#007575;stop-opacity:1;"
       offset="0"
       id="stop771" /><stop
       style="stop-color:#ffffff;stop-opacity:1;"
       offset="1"
       id="stop772" /></linearGradient><linearGradient
     id="linearGradient766"><stop
       style="stop-color:#000;stop-opacity:1;"
       offset="0"
       id="stop767" /><stop
       style="stop-color:#fff;stop-opacity:1;"
       offset="1"
       id="stop768" /></linearGradient><linearGradient
     xlink:href="#linearGradient823"
     id="linearGradient769"
     x1="-1.6636376e-08"
     y1="1.1456427e-07"
     x2="1"
     y2="1.1456427e-07" /><radialGradient
     xlink:href="#linearGradient882"
     id="radialGradient854"
     cx="0.49999994"
     cy="0.50000024"
     r="0.49999997"
     fx="0.49999994"
     fy="0.50000024" /><radialGradient
     xlink:href="#linearGradient885"
     id="radialGradient855"
     cx="400.27728"
     cy="234.38054"
     r="57.514626"
     fx="400.27728"
     fy="234.38054"
     gradientTransform="matrix(0.999923,0,0,1.000077,72,106)"
     gradientUnits="userSpaceOnUse" /><radialGradient
     xlink:href="#linearGradient889"
     id="radialGradient856"
     cx="401.48657"
     cy="236.78456"
     r="58.452129"
     fx="401.48657"
     fy="236.78456"
     gradientTransform="matrix(0.999925,0,0,1.000075,72,106)"
     gradientUnits="userSpaceOnUse" /><radialGradient
     xlink:href="#linearGradient876"
     id="radialGradient857"
     cx="400.27728"
     cy="234.38054"
     r="57.514626"
     fx="400.27728"
     fy="234.38054"
     gradientTransform="matrix(0.999923,0,0,1.000077,72,106)"
     gradientUnits="userSpaceOnUse" /><linearGradient
     xlink:href="#linearGradient913"
     id="linearGradient858"
     x1="0.47286817"
     y1="5.2927044e-06"
     x2="0.47286817"
     y2="0.9765628" /><linearGradient
     xlink:href="#linearGradient917"
     id="linearGradient859"
     x1="0.49781659"
     y1="-6.2584877e-07"
     x2="0.50218344"
     y2="0.97916609" /><linearGradient
     xlink:href="#linearGradient823"
     id="linearGradient860" /><linearGradient
     xlink:href="#linearGradient827"
     id="linearGradient861" /><radialGradient
     xlink:href="#linearGradient850"
     id="radialGradient819"
     cx="400.29263"
     cy="235.24158"
     r="58.447037"
     fx="400.29263"
     fy="235.24158"
     gradientTransform="matrix(0.999857,0,0,1.000143,72,106)"
     gradientUnits="userSpaceOnUse" /><radialGradient
     xlink:href="#linearGradient917"
     id="radialGradient821"
     cx="0.27947599"
     cy="0.032786947"
     r="1.0156188"
     fx="0.27947599"
     fy="0.032786947" /><radialGradient
     inkscape:collect="always"
     xlink:href="#linearGradient876"
     id="radialGradient2452"
     cx="400.27795"
     cy="234.38014"
     fx="400.27795"
     fy="234.38014"
     r="56.264626"
     gradientTransform="matrix(0.999922,0,0,1.000078,72,106)"
     gradientUnits="userSpaceOnUse" /></defs><sodipodi:namedview
   id="base"
   showgrid="false"
   snaptogrid="true"
   inkscape:zoom="1.4367677"
   inkscape:cx="320.71437"
   inkscape:cy="112.25625"
   inkscape:window-width="1434"
   inkscape:window-height="825"
   inkscape:window-x="0"
   inkscape:window-y="0"
   inkscape:current-layer="svg602"
   units="pt"><inkscape:grid
     id="GridFromPre046Settings"
     type="xygrid"
     originx="0px"
     originy="0px"
     spacingx="1mm"
     spacingy="1mm"
     color="#0000ff"
     empcolor="#0000ff"
     opacity="0.2"
     empopacity="0.4"
     empspacing="5"
     units="mm"
     visible="true"
     enabled="true" /></sodipodi:namedview><path
   style="font-size:12px;fill:#ffffff;fill-opacity:0.15460002;fill-rule:evenodd;stroke:none;stroke-width:4.375;stroke-dasharray:none;stroke-opacity:0.1488"
   d="M 805.32646,267.67647 C 776.8705,266.08117 750.13435,284.59605 742.57297,313.18751 C 734.10956,344.3573 702.29048,362.70742 670.90443,354.24139 C 642.65036,346.76927 613.62162,360.48122 600.64394,385.44231 C 601.87248,357.18336 583.57374,330.76597 555.24991,323.2751 C 522.38093,314.38417 488.9343,334.11108 480.06288,366.90944 C 471.41371,399.34303 490.72999,433.09368 523.57971,441.97935 C 554.66739,450.2145 573.00426,482.13945 564.7511,513.29575 C 557.00271,541.70558 570.74693,570.91456 595.95203,583.79124 C 567.61957,582.36683 541.29669,600.78069 533.78481,628.95039 C 524.89089,661.83026 544.39105,695.61314 577.06714,704.25481 C 609.75137,713.16861 643.49538,693.53107 652.13705,660.8551 C 660.60033,629.68529 692.30203,611.33517 723.68796,619.80121 C 740.41165,624.22399 757.0292,620.53724 770.84129,612.17708 C 776.65099,608.66046 781.68479,604.30007 786.08982,599.03989 C 786.16043,598.95538 786.25431,598.88976 786.32444,598.80525 C 786.41007,598.69487 786.4742,598.56388 786.55908,598.45325 C 789.12228,595.31489 792.02714,592.49154 793.94895,588.83492 C 792.82104,616.94549 811.18653,643.08674 839.34261,650.533 C 872.02684,659.4468 905.74946,639.75851 914.64701,607.13316 C 923.27593,574.50481 903.91202,540.69254 871.01268,532.06325 C 839.84325,523.59984 821.49287,491.89828 829.95879,460.51222 C 837.43092,432.25814 823.71908,403.22942 798.75786,390.25173 C 814.7054,391.02188 829.52565,384.99793 841.2193,375.00309 C 850.26748,367.26908 857.65285,357.36362 860.92521,345.09221 C 869.81913,312.21235 850.26785,278.45084 817.64288,269.55316 L 817.52537,269.55316 C 813.4416,268.47325 809.39159,267.90423 805.32646,267.67647 z M 709.14322,442.33148 C 708.36507,465.95516 721.3225,488.12928 742.33833,498.98552 C 718.75367,497.96724 696.47479,510.88866 685.33216,531.82863 C 686.3617,508.1937 673.42527,486.03671 652.60619,475.05708 C 676.0786,475.87599 698.17097,463.07593 709.14322,442.33148 z"
   id="path1001" /><rect
   style="font-size:12px;fill:#002255;fill-opacity:1;fill-rule:evenodd;stroke-width:1"
   id="rect871"
   x="0.40378952"
   y="0.15406504"
   width="800"
   height="600.22498"
   inkscape:export-filename="/media/devel/kuliax/pkg/build/kuliax-artwork-7.0/syslinux/syslinux-7.0-640x480.png"
   inkscape:export-xdpi="72"
   inkscape:export-ydpi="72" /><path
   style="font-size:12px;fill:#ffffff;fill-opacity:0.10309999;fill-rule:evenodd"
   d="M 0.12753584,0.016178822 L 0.12753584,268.33301 C 390.62322,367.27481 548.24718,196.22288 800.92079,268.33301 L 800.92079,0.016178822 L 0.12753584,0.016178822 z"
   id="path829"
   sodipodi:nodetypes="ccccc"
   inkscape:export-filename="/home/stwn/NEW/splash.png"
   inkscape:export-xdpi="72"
   inkscape:export-ydpi="72" /><path
   style="font-size:12px;fill:#ffffff;fill-opacity:0.1;fill-rule:evenodd;stroke:#ffffff;stroke-width:16.4246788;stroke-opacity:0.07999998"
   d="M 765.43333,488.50126 C 801.09839,498.12146 821.98123,534.72494 812.59566,569.92076 C 804.85265,598.54659 821.74659,627.64182 850.1378,635.15021 C 878.52901,642.89321 907.62424,625.99927 915.36725,597.60806 C 922.87575,569.21686 906.21631,540.12162 877.59048,532.61325 C 842.16015,522.99305 821.04269,486.62407 830.66277,450.95912 C 838.17127,422.56791 821.27733,393.23805 792.886,385.72967 C 764.72943,378.22117 735.39968,395.11524 727.65655,423.27181 C 720.14818,451.66302 737.04212,480.99275 765.43333,488.50126 z M 714.98612,419.98682 C 724.60632,384.32188 761.20993,363.43904 796.40561,372.82449 C 825.03146,380.56763 854.12668,363.67368 861.63506,335.51711 C 869.3782,306.89114 852.48413,277.79603 824.09292,270.0529 C 795.70171,262.54453 766.60662,279.43847 759.09811,307.82967 C 749.47791,343.26012 713.10906,364.37758 677.44399,354.75738 C 649.05278,347.249 619.72291,364.14295 612.21454,392.53415 C 604.70616,420.69072 621.6001,450.02059 649.75667,457.7636 C 678.14788,465.2721 707.47775,448.37803 714.98612,419.98682 z M 646.47169,470.43403 C 610.80674,460.81396 589.68928,424.44498 599.30947,389.01454 C 606.81786,360.38869 590.15854,331.29359 561.76733,323.78509 C 533.14137,316.04208 504.2809,332.93602 496.53777,361.56186 C 489.02939,389.71856 505.68869,418.81366 534.31454,426.55668 C 569.74498,435.94224 590.62781,472.54584 581.24224,507.97616 C 573.49923,536.36749 590.39318,565.69724 618.78438,573.20574 C 647.17559,580.94874 676.50545,563.82017 684.01383,535.6636 C 691.75697,507.27227 674.62826,477.94253 646.47169,470.43403 z M 696.68439,539.1831 C 687.29881,574.61354 650.69521,595.731 615.49952,586.34543 C 586.87356,578.60229 557.77845,595.49636 550.26994,623.65294 C 542.52693,652.27878 559.42088,681.37401 587.81209,688.88238 C 616.20342,696.6254 645.29853,679.73146 652.8069,651.34025 C 662.4271,615.9098 698.79608,594.79234 734.46115,604.41255 C 762.85236,611.92104 792.1821,595.0271 799.6906,566.63577 C 807.19898,538.24456 790.30503,509.14946 761.91382,501.40632 C 733.75713,493.89794 704.42739,510.79189 696.68439,539.1831 z"
   id="path1008" /><path
   style="font-size:12px;opacity:1;fill:none;fill-rule:evenodd;stroke:#ffffff;stroke-width:5.80061674;stroke-linecap:round;stroke-linejoin:round;stroke-opacity:1"
   d="M 74.149948,496.45711 L 74.149948,529.34245 M 94.70346,496.4577 L 74.149948,521.12104 M 82.37136,512.89977 L 94.70346,529.34259 M 102.92457,504.67954 L 102.92473,521.12192 C 102.92457,525.2319 107.03528,529.34245 111.14598,529.34259 C 119.36739,529.34259 119.36739,529.34259 119.36739,521.12192 L 119.36724,504.67954 M 127.58865,496.4577 L 127.58865,521.12192 C 127.58865,525.2319 131.69935,529.34245 135.8102,529.34259 M 144.03131,508.78922 L 144.03131,529.34259 M 193.35945,504.67954 L 176.91664,529.34259 M 176.91664,504.67954 L 193.35945,529.34259 M 156.36341,504.67837 L 160.47397,504.67954 C 164.58468,504.67837 168.69539,508.78922 168.69539,512.90007 L 168.69539,529.34259 M 168.69539,512.90007 L 160.47397,512.90007 C 156.36341,512.89977 152.25272,517.01048 152.25272,521.12192 C 152.25272,529.34245 152.25272,529.34245 160.47397,529.34259 L 168.69539,529.34259 M 144.03131,496.45711 L 144.03131,500.56781"
   id="path992"
   inkscape:export-filename="/home/stwn/NEW/splash.png"
   inkscape:export-xdpi="72"
   inkscape:export-ydpi="72" />



















<text
   xml:space="preserve"
   style="font-size:19.49807549px;font-style:normal;font-variant:normal;font-weight:bold;font-stretch:normal;text-align:start;line-height:100%;writing-mode:lr-tb;text-anchor:start;fill:#000000;fill-opacity:1;stroke:none;stroke-width:1px;stroke-linecap:butt;stroke-linejoin:miter;stroke-opacity:1;font-family:Bitstream Charter;-inkscape-font-specification:Bitstream Charter Bold"
   x="195.95137"
   y="494.76367"
   id="text2434"
   sodipodi:linespacing="100%"
   inkscape:export-filename="/home/stwn/NEW/splash.png"
   inkscape:export-xdpi="72"
   inkscape:export-ydpi="72"><tspan
     sodipodi:role="line"
     id="tspan2436"
     x="195.95137"
     y="494.76367"
     style="font-size:19.49807549px;font-style:normal;font-variant:normal;font-weight:bold;font-stretch:normal;text-align:start;line-height:100%;writing-mode:lr-tb;text-anchor:start;fill:#ffffff;font-family:Bitstream Charter;-inkscape-font-specification:Bitstream Charter Bold">7.0</tspan></text>









</svg>