<?xml version="1.0" encoding="UTF-8" standalone="no"?>
<!-- Created with Sodipodi ("http://www.sodipodi.com/") -->
<svg
   xmlns:dc="http://purl.org/dc/elements/1.1/"
   xmlns:cc="http://creativecommons.org/ns#"
   xmlns:rdf="http://www.w3.org/1999/02/22-rdf-syntax-ns#"
   xmlns:svg="http://www.w3.org/2000/svg"
   xmlns="http://www.w3.org/2000/svg"
   xmlns:xlink="http://www.w3.org/1999/xlink"
   xmlns:sodipodi="http://sodipodi.sourceforge.net/DTD/sodipodi-0.dtd"
   xmlns:inkscape="http://www.inkscape.org/namespaces/inkscape"
   id="svg602"
   sodipodi:version="0.32"
   width="800"
   height="600"
   xml:space="preserve"
   sodipodi:docbase="/mnt/test/kuliax-6.0/artworks/kuliax-artwork-0.1.2/grub"
   sodipodi:docname="splashy-suspend.svg"
   inkscape:version="0.46"
   inkscape:export-filename="/home/kuliax/kuliax.png"
   inkscape:export-xdpi="112.5"
   inkscape:export-ydpi="112.5"
   inkscape:output_extension="org.inkscape.output.svg.inkscape"
   version="1.0"><metadata
   id="metadata2450"><rdf:RDF><cc:Work
       rdf:about=""><dc:format>image/svg+xml</dc:format><dc:type
         rdf:resource="http://purl.org/dc/dcmitype/StillImage" /></cc:Work></rdf:RDF></metadata><defs
   id="defs604"><inkscape:perspective
     sodipodi:type="inkscape:persp3d"
     inkscape:vp_x="0 : 526.18109 : 1"
     inkscape:vp_y="0 : 1000 : 0"
     inkscape:vp_z="744.09448 : 526.18109 : 1"
     inkscape:persp3d-origin="372.04724 : 350.78739 : 1"
     id="perspective64" /><linearGradient
     id="linearGradient850"><stop
       style="stop-color:#ffd94d;stop-opacity:1;"
       offset="0"
       id="stop851" /><stop
       style="stop-color:#8f5a00;stop-opacity:1;"
       offset="1"
       id="stop852" /></linearGradient><linearGradient
     id="linearGradient823"><stop
       style="stop-color:#ffffff;stop-opacity:0.102;"
       offset="0"
       id="stop824" /><stop
       style="stop-color:#ffffff;stop-opacity:0;"
       offset="1"
       id="stop827" /></linearGradient><linearGradient
     id="linearGradient917"><stop
       style="stop-color:#ffffff;stop-opacity:1;"
       offset="0"
       id="stop918" /><stop
       style="stop-color:#ffffff;stop-opacity:0;"
       offset="1"
       id="stop919" /></linearGradient><linearGradient
     id="linearGradient913"><stop
       style="stop-color:#ccea7a;stop-opacity:1;"
       offset="0"
       id="stop914" /><stop
       style="stop-color:#ffffff;stop-opacity:1;"
       offset="1"
       id="stop915" /></linearGradient><linearGradient
     id="linearGradient889"><stop
       style="stop-color:#000000;stop-opacity:0.051;"
       offset="0"
       id="stop890" /><stop
       style="stop-color:#000000;stop-opacity:0.1961;"
       offset="1"
       id="stop891" /></linearGradient><linearGradient
     id="linearGradient885"><stop
       style="stop-color:#ff9f00;stop-opacity:1;"
       offset="0"
       id="stop886" /><stop
       style="stop-color:#ffc24a;stop-opacity:1;"
       offset="1"
       id="stop887" /></linearGradient><linearGradient
     id="linearGradient882"><stop
       style="stop-color:#ffda4d;stop-opacity:1;"
       offset="0"
       id="stop883" /><stop
       style="stop-color:#d57a00;stop-opacity:1;"
       offset="1"
       id="stop884" /></linearGradient><linearGradient
     id="linearGradient876"><stop
       style="stop-color:#ffff7a;stop-opacity:1;"
       offset="0"
       id="stop877" /><stop
       style="stop-color:#ff8d00;stop-opacity:1;"
       offset="1"
       id="stop878" /></linearGradient><linearGradient
     id="linearGradient827"><stop
       style="stop-color:#000000;stop-opacity:1;"
       offset="0"
       id="stop828" /><stop
       style="stop-color:#826f37;stop-opacity:1;"
       offset="1"
       id="stop829" /></linearGradient><linearGradient
     id="linearGradient824"><stop
       style="stop-color:#e6e6e6;stop-opacity:1;"
       offset="0"
       id="stop825" /><stop
       style="stop-color:#ffffff;stop-opacity:1;"
       offset="1"
       id="stop826" /></linearGradient><linearGradient
     id="linearGradient770"><stop
       style="stop-color:#007575;stop-opacity:1;"
       offset="0"
       id="stop771" /><stop
       style="stop-color:#ffffff;stop-opacity:1;"
       offset="1"
       id="stop772" /></linearGradient><linearGradient
     id="linearGradient766"><stop
       style="stop-color:#000;stop-opacity:1;"
       offset="0"
       id="stop767" /><stop
       style="stop-color:#fff;stop-opacity:1;"
       offset="1"
       id="stop768" /></linearGradient><linearGradient
     xlink:href="#linearGradient823"
     id="linearGradient769"
     x1="-1.6636376e-08"
     y1="1.1456427e-07"
     x2="1"
     y2="1.1456427e-07" /><radialGradient
     xlink:href="#linearGradient882"
     id="radialGradient854"
     cx="0.49999994"
     cy="0.50000024"
     r="0.49999997"
     fx="0.49999994"
     fy="0.50000024" /><radialGradient
     xlink:href="#linearGradient885"
     id="radialGradient855"
     cx="400.27728"
     cy="234.38054"
     r="57.514626"
     fx="400.27728"
     fy="234.38054"
     gradientTransform="matrix(0.999923,0,0,1.000077,72,106)"
     gradientUnits="userSpaceOnUse" /><radialGradient
     xlink:href="#linearGradient889"
     id="radialGradient856"
     cx="401.48657"
     cy="236.78456"
     r="58.452129"
     fx="401.48657"
     fy="236.78456"
     gradientTransform="matrix(0.999925,0,0,1.000075,72,106)"
     gradientUnits="userSpaceOnUse" /><radialGradient
     xlink:href="#linearGradient876"
     id="radialGradient857"
     cx="400.27728"
     cy="234.38054"
     r="57.514626"
     fx="400.27728"
     fy="234.38054"
     gradientTransform="matrix(0.999923,0,0,1.000077,72,106)"
     gradientUnits="userSpaceOnUse" /><linearGradient
     xlink:href="#linearGradient913"
     id="linearGradient858"
     x1="0.47286817"
     y1="5.2927044e-06"
     x2="0.47286817"
     y2="0.9765628" /><linearGradient
     xlink:href="#linearGradient917"
     id="linearGradient859"
     x1="0.49781659"
     y1="-6.2584877e-07"
     x2="0.50218344"
     y2="0.97916609" /><linearGradient
     xlink:href="#linearGradient823"
     id="linearGradient860" /><linearGradient
     xlink:href="#linearGradient827"
     id="linearGradient861" /><radialGradient
     xlink:href="#linearGradient850"
     id="radialGradient819"
     cx="400.29263"
     cy="235.24158"
     r="58.447037"
     fx="400.29263"
     fy="235.24158"
     gradientTransform="matrix(0.999857,0,0,1.000143,72,106)"
     gradientUnits="userSpaceOnUse" /><radialGradient
     xlink:href="#linearGradient917"
     id="radialGradient821"
     cx="0.27947599"
     cy="0.032786947"
     r="1.0156188"
     fx="0.27947599"
     fy="0.032786947" /><radialGradient
     inkscape:collect="always"
     xlink:href="#linearGradient876"
     id="radialGradient2452"
     cx="400.27795"
     cy="234.38014"
     fx="400.27795"
     fy="234.38014"
     r="56.264626"
     gradientTransform="matrix(0.999922,0,0,1.000078,72,106)"
     gradientUnits="userSpaceOnUse" /></defs><sodipodi:namedview
   id="base"
   showgrid="false"
   snaptogrid="true"
   inkscape:zoom="0.71838386"
   inkscape:cx="528.96988"
   inkscape:cy="267.28637"
   inkscape:window-width="1434"
   inkscape:window-height="825"
   inkscape:window-x="0"
   inkscape:window-y="0"
   inkscape:current-layer="svg602"
   units="pt"><inkscape:grid
     id="GridFromPre046Settings"
     type="xygrid"
     originx="0px"
     originy="0px"
     spacingx="1mm"
     spacingy="1mm"
     color="#0000ff"
     empcolor="#0000ff"
     opacity="0.2"
     empopacity="0.4"
     empspacing="5"
     units="mm"
     visible="true"
     enabled="true" /></sodipodi:namedview><path
   style="font-size:12px;fill:#ffffff;fill-opacity:0.15460002;fill-rule:evenodd;stroke:none;stroke-width:4.375;stroke-dasharray:none;stroke-opacity:0.1488"
   d="M 804.51103,261.48846 C 776.05507,259.89316 749.31892,278.40804 741.75754,306.9995 C 733.29413,338.16929 701.47505,356.51941 670.089,348.05338 C 641.83493,340.58126 612.80619,354.29321 599.82851,379.2543 C 601.05705,350.99535 582.75831,324.57796 554.43448,317.08709 C 521.5655,308.19616 488.11887,327.92307 479.24745,360.72143 C 470.59828,393.15502 489.91456,426.90567 522.76428,435.79134 C 553.85196,444.02649 572.18883,475.95144 563.93567,507.10774 C 556.18728,535.51757 569.9315,564.72655 595.1366,577.60323 C 566.80414,576.17882 540.48126,594.59268 532.96938,622.76238 C 524.07546,655.64225 543.57562,689.42513 576.25171,698.0668 C 608.93594,706.9806 642.67995,687.34306 651.32162,654.66709 C 659.7849,623.49728 691.4866,605.14716 722.87253,613.6132 C 739.59622,618.03598 756.21377,614.34923 770.02586,605.98907 C 775.83556,602.47245 780.86936,598.11206 785.27439,592.85188 C 785.345,592.76737 785.43888,592.70175 785.50901,592.61724 C 785.59464,592.50686 785.65877,592.37587 785.74365,592.26524 C 788.30685,589.12688 791.21171,586.30353 793.13352,582.64691 C 792.00561,610.75748 810.3711,636.89873 838.52718,644.34499 C 871.21141,653.25879 904.93403,633.5705 913.83158,600.94515 C 922.4605,568.3168 903.09659,534.50453 870.19725,525.87524 C 839.02782,517.41183 820.67744,485.71027 829.14336,454.32421 C 836.61549,426.07013 822.90365,397.04141 797.94243,384.06372 C 813.88997,384.83387 828.71022,378.80992 840.40387,368.81508 C 849.45205,361.08107 856.83742,351.17561 860.10978,338.9042 C 869.0037,306.02434 849.45242,272.26283 816.82745,263.36515 L 816.70994,263.36515 C 812.62617,262.28524 808.57616,261.71622 804.51103,261.48846 z M 708.32779,436.14347 C 707.54964,459.76715 720.50707,481.94127 741.5229,492.79751 C 717.93824,491.77923 695.65936,504.70065 684.51673,525.64062 C 685.54627,502.00569 672.60984,479.8487 651.79076,468.86907 C 675.26317,469.68798 697.35554,456.88792 708.32779,436.14347 z"
   id="path1001" /><rect
   style="font-size:12px;fill:#002255;fill-opacity:1;fill-rule:evenodd;stroke-width:1"
   id="rect871"
   x="0.080517992"
   y="-0.033947635"
   width="800"
   height="600"
   inkscape:export-filename="/home/stwn/kuliax/suspend.png"
   inkscape:export-xdpi="115.2"
   inkscape:export-ydpi="115.2" /><path
   style="font-size:12px;fill:#ffffff;fill-opacity:0.10309999;fill-rule:evenodd"
   d="M -0.6281019,-0.27850552 L -0.6281019,290.67571 C 389.4272,397.96503 546.8734,212.48178 799.26204,290.67571 L 799.26204,-0.27850552 L -0.6281019,-0.27850552 z"
   id="path829"
   sodipodi:nodetypes="ccccc"
   inkscape:export-filename="/home/stwn/NEW/splash.png"
   inkscape:export-xdpi="72"
   inkscape:export-ydpi="72" /><path
   style="font-size:12px;opacity:1;fill:none;fill-rule:evenodd;stroke:#ffffff;stroke-width:5.80061674;stroke-linecap:round;stroke-linejoin:round;stroke-opacity:1"
   d="M 576.21472,120.99504 L 576.21472,153.88038 M 596.76823,120.99563 L 576.21472,145.65897 M 584.43613,137.4377 L 596.76823,153.88052 M 604.98934,129.21747 L 604.9895,145.65985 C 604.98934,149.76983 609.10005,153.88038 613.21075,153.88052 C 621.43217,153.88052 621.43217,153.88052 621.43217,145.65985 L 621.43202,129.21747 M 629.65343,120.99563 L 629.65343,145.65985 C 629.65343,149.76983 633.76413,153.88038 637.87498,153.88052 M 646.09609,133.32715 L 646.09609,153.88052 M 695.42423,129.21747 L 678.98142,153.88052 M 678.98142,129.21747 L 695.42423,153.88052 M 658.42819,129.2163 L 662.53875,129.21747 C 666.64946,129.2163 670.76017,133.32715 670.76017,137.438 L 670.76017,153.88052 M 670.76017,137.438 L 662.53875,137.438 C 658.42819,137.4377 654.3175,141.54841 654.3175,145.65985 C 654.3175,153.88038 654.3175,153.88038 662.53875,153.88052 L 670.76017,153.88052 M 646.09609,120.99504 L 646.09609,125.10574"
   id="path992"
   inkscape:export-filename="/home/stwn/NEW/splash.png"
   inkscape:export-xdpi="72"
   inkscape:export-ydpi="72" />



















<text
   xml:space="preserve"
   style="font-size:19.49807549px;font-style:normal;font-variant:normal;font-weight:bold;font-stretch:normal;text-align:start;line-height:100%;writing-mode:lr-tb;text-anchor:start;fill:#000000;fill-opacity:1;stroke:none;stroke-width:1px;stroke-linecap:butt;stroke-linejoin:miter;stroke-opacity:1;font-family:Bitstream Charter;-inkscape-font-specification:Bitstream Charter Bold"
   x="698.01617"
   y="119.30158"
   id="text2434"
   sodipodi:linespacing="100%"
   inkscape:export-filename="/home/stwn/NEW/splash.png"
   inkscape:export-xdpi="72"
   inkscape:export-ydpi="72"><tspan
     sodipodi:role="line"
     id="tspan2436"
     x="698.01617"
     y="119.30158"
     style="font-size:19.49807549px;font-style:normal;font-variant:normal;font-weight:bold;font-stretch:normal;text-align:start;line-height:100%;writing-mode:lr-tb;text-anchor:start;fill:#ffffff;font-family:Bitstream Charter;-inkscape-font-specification:Bitstream Charter Bold">7.0</tspan></text>









<path
   style="font-size:12px;fill:#ffffff;fill-opacity:0.1;fill-rule:evenodd;stroke:#ffffff;stroke-width:20.58416176;stroke-opacity:0.07999998"
   d="M 754.16733,452.11598 C 798.8644,464.17245 825.03574,510.04561 813.27331,554.15463 C 803.56942,590.02983 824.74167,626.49331 860.32284,635.90317 C 895.90401,645.60706 932.36751,624.43479 942.07141,588.85361 C 951.48141,553.27247 930.60301,516.80897 894.72781,507.39914 C 850.32489,495.34266 823.85952,449.76339 835.91584,405.06644 C 845.32584,369.48527 824.15358,332.72775 788.57227,323.31789 C 753.28516,313.9079 716.52776,335.08032 706.82372,370.36743 C 697.41388,405.9486 718.58614,442.70596 754.16733,452.11598 z M 690.94456,366.25053 C 703.00103,321.55358 748.87436,295.38226 792.9832,307.14453 C 828.85843,316.84859 865.32189,295.6763 874.73174,260.3892 C 884.43581,224.51383 863.26337,188.0505 827.6822,178.34646 C 792.10104,168.93662 755.63774,190.10888 746.22772,225.69004 C 734.17125,270.0931 688.59214,296.55847 643.89504,284.502 C 608.31386,275.09215 571.55633,296.26443 562.1465,331.84558 C 552.73664,367.13269 573.90891,403.89022 609.19602,413.59412 C 644.77717,423.00412 681.53472,401.83169 690.94456,366.25053 z M 605.07913,429.47329 C 560.38217,417.41697 533.9168,371.8377 545.97326,327.43465 C 555.38313,291.55942 534.5049,255.09609 498.92373,245.6861 C 463.04836,235.98221 426.8791,257.15447 417.17506,293.02968 C 407.7652,328.31696 428.6434,364.78027 464.51862,374.48418 C 508.92168,386.24661 535.09301,432.1199 523.33058,476.52281 C 513.62669,512.10413 534.79896,548.86152 570.38011,558.27151 C 605.96128,567.9754 642.71881,546.50909 652.12865,511.22198 C 661.83272,475.64066 640.36623,438.88328 605.07913,429.47329 z M 668.008,515.63278 C 656.24554,560.03583 610.37224,586.5012 566.26338,574.73877 C 530.38802,565.03472 493.9247,586.20715 484.51467,621.49426 C 474.81078,657.36948 495.98305,693.83296 531.56421,703.24279 C 567.14553,712.9467 603.60886,691.77443 613.01871,656.19328 C 625.07518,611.79021 670.65445,585.32484 715.35156,597.38132 C 750.93273,606.79132 787.69011,585.61905 797.10009,550.03772 C 806.50994,514.45656 785.33767,477.99324 749.7565,468.28918 C 714.46924,458.87934 677.71186,480.0516 668.008,515.63278 z"
   id="path5633" /><text
   xml:space="preserve"
   style="font-size:24px;font-style:normal;font-variant:normal;font-weight:normal;font-stretch:normal;text-align:start;line-height:100%;writing-mode:lr;text-anchor:start;fill:#ffa500;fill-opacity:1;stroke:none;stroke-width:1px;stroke-linecap:butt;stroke-linejoin:miter;stroke-opacity:1;font-family:Bitstream Charter;-inkscape-font-specification:Bitstream Charter"
   x="77.840446"
   y="137.86063"
   id="text5238"
   sodipodi:linespacing="100%"><tspan
     sodipodi:role="line"
     id="tspan5418">Suspending system...</tspan><tspan
     sodipodi:role="line"
     id="tspan5420"></tspan></text>
</svg>