<?xml version="1.0" encoding="UTF-8" standalone="no"?>
<!-- Created with Inkscape (http://www.inkscape.org/) -->
<svg
   xmlns:dc="http://purl.org/dc/elements/1.1/"
   xmlns:cc="http://creativecommons.org/ns#"
   xmlns:rdf="http://www.w3.org/1999/02/22-rdf-syntax-ns#"
   xmlns:svg="http://www.w3.org/2000/svg"
   xmlns="http://www.w3.org/2000/svg"
   xmlns:xlink="http://www.w3.org/1999/xlink"
   xmlns:sodipodi="http://sodipodi.sourceforge.net/DTD/sodipodi-0.dtd"
   xmlns:inkscape="http://www.inkscape.org/namespaces/inkscape"
   width="48px"
   height="48px"
   id="svg6082"
   sodipodi:version="0.32"
   inkscape:version="0.46"
   sodipodi:docname="logo.svg"
   inkscape:output_extension="org.inkscape.output.svg.inkscape">
  <defs
     id="defs6084">
    <linearGradient
       id="linearGradient876">
      <stop
         style="stop-color:#ffff7a;stop-opacity:1;"
         offset="0"
         id="stop877" />
      <stop
         style="stop-color:#ff8d00;stop-opacity:1;"
         offset="1"
         id="stop878" />
    </linearGradient>
    <radialGradient
       inkscape:collect="always"
       xlink:href="#linearGradient876"
       id="radialGradient6068"
       cx="400.27795"
       cy="234.38014"
       fx="400.27795"
       fy="234.38014"
       r="56.264627"
       gradientTransform="matrix(0.4235638,0,0,0.4236301,-145.54324,-75.152668)"
       gradientUnits="userSpaceOnUse" />
    <inkscape:perspective
       sodipodi:type="inkscape:persp3d"
       inkscape:vp_x="0 : 24 : 1"
       inkscape:vp_y="0 : 1000 : 0"
       inkscape:vp_z="48 : 24 : 1"
       inkscape:persp3d-origin="24 : 16 : 1"
       id="perspective6090" />
  </defs>
  <sodipodi:namedview
     id="base"
     pagecolor="#ffffff"
     bordercolor="#666666"
     borderopacity="1.0"
     inkscape:pageopacity="0.0"
     inkscape:pageshadow="2"
     inkscape:zoom="9.8994949"
     inkscape:cx="38.551659"
     inkscape:cy="22.713054"
     inkscape:current-layer="layer1"
     showgrid="true"
     inkscape:grid-bbox="true"
     inkscape:document-units="px"
     inkscape:window-width="1434"
     inkscape:window-height="825"
     inkscape:window-x="0"
     inkscape:window-y="0" />
  <metadata
     id="metadata6087">
    <rdf:RDF>
      <cc:Work
         rdf:about="">
        <dc:format>image/svg+xml</dc:format>
        <dc:type
           rdf:resource="http://purl.org/dc/dcmitype/StillImage" />
      </cc:Work>
    </rdf:RDF>
  </metadata>
  <g
     id="layer1"
     inkscape:label="Layer 1"
     inkscape:groupmode="layer">
    <path
       style="font-size:12px;fill:#ffffff;fill-opacity:0.1;fill-rule:evenodd;stroke:#ffffff;stroke-width:1.78884172;stroke-opacity:0.07999998"
       d="M 30.481953,25.064167 C 34.366607,26.11184 36.641169,30.098081 35.618891,33.931023 C 34.775521,37.048471 36.615615,40.217038 39.707993,41.034727 C 42.800375,41.877964 45.969437,40.038158 46.812808,36.946262 C 47.630639,33.854364 45.816084,30.685797 42.698148,29.86811 C 38.839067,28.82044 36.538944,24.859736 37.586768,20.975704 C 38.404597,17.883808 36.564501,14.689687 33.472109,13.872001 C 30.405285,13.054299 27.210678,14.894119 26.367293,17.960465 C 25.549479,21.052362 27.389574,24.246468 30.481953,25.064167 z M 24.987227,17.602718 C 26.035062,13.718687 30.021942,11.444478 33.855466,12.466583 C 36.973402,13.309837 40.142466,11.47003 40.960281,8.4036868 C 41.803665,5.2862244 39.963556,2.1176708 36.871177,1.2744182 C 33.778798,0.45673038 30.609749,2.2965359 29.79192,5.3884334 C 28.744084,9.2469241 24.782778,11.546688 20.898125,10.499018 C 17.805744,9.6813286 14.611123,11.521134 13.793309,14.613031 C 12.975493,17.679376 14.815591,20.873494 17.882413,21.716736 C 20.974793,22.534436 24.169412,20.694614 24.987227,17.602718 z M 17.524611,23.096586 C 13.639973,22.048929 11.339851,18.088226 12.387685,14.229733 C 13.205502,11.112284 11.390965,7.9437325 8.2985837,7.1260298 C 5.1806338,6.2827891 2.0371391,8.1225976 1.1937578,11.240046 C 0.37594223,14.306403 2.1904783,17.474956 5.3084132,18.318198 C 9.1675105,19.340316 11.442077,23.326572 10.419795,27.185049 C 9.576426,30.27696 11.416519,33.471065 14.508899,34.288768 C 17.601281,35.132008 20.795899,33.266648 21.613714,30.200301 C 22.457099,27.108392 20.591435,23.914288 17.524611,23.096586 z M 22.993795,30.583589 C 21.971515,34.44208 17.984638,36.741843 14.151111,35.719726 C 11.033161,34.87647 7.8641116,36.71629 7.0462841,39.782635 C 6.2029116,42.900083 8.0430075,46.06865 11.135386,46.886339 C 14.227781,47.729575 17.396831,45.889771 18.214646,42.797875 C 19.26248,38.939381 23.223801,36.639619 27.108454,37.687292 C 30.200834,38.504992 33.395441,36.665187 34.213268,33.573274 C 35.031084,30.48138 33.190987,27.312825 30.09861,26.469572 C 27.031771,25.651884 23.837166,27.491691 22.993795,30.583589 z"
       id="path1008" />
  </g>
</svg>
